<svg xml:space="preserve" style="enable-background:new 0 0 572 168.7;" viewBox="0 0 572 168.7" y="0px" x="0px" xmlns:xlink="http://www.w3.org/1999/xlink" xmlns="http://www.w3.org/2000/svg" id="Primary_Logo_FULL_COLOR" version="1.1">
<style type="text/css">
	.st0{fill:#231F20;}
</style>
<g>
	<path d="M276.4,102.6c0,7.6-6.1,13.7-13.7,13.7h-6.8V89h6.8C270.3,89,276.4,95,276.4,102.6z M257.9,91v23.2h4.8
		c6.5,0,11.7-5.2,11.7-11.7c0-6.4-5.2-11.6-11.7-11.6L257.9,91L257.9,91z" class="st0"></path>
	<path d="M295,102.8h-8.3v11.4h11.8v2h-13.8V89h12.4v2h-10.3v9.8h8.3v2H295z" class="st0"></path>
	<path d="M318.2,106.2c-0.9,0-2.1-0.2-2.4-0.3l9.5,9.6l-1.4,1.4l-12.4-12.4h5.5c3.2,0,6.6-2.5,6.6-6.9
		c0-3.1-2.4-6.7-6.7-6.7h-6.3v25.3h-2V89h8.4c5.5,0,8.7,4.5,8.7,8.7C325.7,102.4,322.2,106.2,318.2,106.2z" class="st0"></path>
	<path d="M361.9,88.1v28.2h-2V93.6l-11.3,13.5l-11.4-13.5v22.6h-2V88.1l13.4,15.9L361.9,88.1z" class="st0"></path>
	<path d="M383.1,88.1l12.9,27.7l-1.8,0.9l-4.7-10.1h-12.8l-4.7,10.1l-1.8-0.9L383.1,88.1z M383,92.9l-5.4,11.7h10.9
		L383,92.9z" class="st0"></path>
	<path d="M409.8,116.3V91h-9.4v-2H421v2h-9.2v25.3H409.8z" class="st0"></path>
	<path d="M439.9,88.2c8.5,0,14.5,6.8,14.5,14.2c0,8.6-6.8,14.5-14.2,14.5c-8.5,0-14.5-6.8-14.5-14.2
		C425.7,94.1,432.5,88.2,439.9,88.2z M439.9,90.2c-6.3,0-12.2,5-12.2,12.4c0,6.3,4.9,12.3,12.4,12.3c6.3,0,12.3-4.9,12.3-12.3
		C452.4,95.8,447.1,90.2,439.9,90.2z" class="st0"></path>
	<path d="M462.8,89h2v25.3h14.4v2h-16.4V89z" class="st0"></path>
	<path d="M498.6,88.2c8.6,0,14.5,6.8,14.5,14.2c0,8.6-6.8,14.5-14.2,14.5c-8.5,0-14.5-6.8-14.5-14.2
		C484.4,94.1,491.2,88.2,498.6,88.2z M498.6,90.2c-6.3,0-12.2,5-12.2,12.4c0,6.3,4.9,12.3,12.4,12.3c6.3,0,12.3-4.9,12.3-12.3
		C511.1,95.8,505.8,90.2,498.6,90.2z" class="st0"></path>
	<path d="M533.5,114.9c2.9,0,5.8-1.1,8-3v-5.3h-8v-2h10.1v8.2c-2.7,2.6-6.3,4.1-10,4.1c-8.5,0-14.5-6.8-14.5-14.2
		c0-8.5,6.8-14.5,14.2-14.5c4.2,0,7.8,1.6,10.3,4.2l-1.4,1.4c-2.2-2.2-5.3-3.6-8.9-3.6c-6.5,0-12.2,5.3-12.2,12.4
		C521,109.2,526.3,114.9,533.5,114.9z" class="st0"></path>
	<path d="M559.1,116.3V108l-8.6-18.5l1.8-0.9l7.8,16.8l7.8-16.8l1.8,0.9l-8.7,18.6v8.2L559.1,116.3L559.1,116.3z" class="st0"></path>
</g>
<g>
	<path d="M282.6,50.5v28.2h-2V56l-11.3,13.5L257.9,56v22.6h-2V50.5l13.4,15.9L282.6,50.5z" class="st0"></path>
	<path d="M303.7,50.5l12.9,27.7l-1.8,0.9L310.1,69h-12.8l-4.7,10.1l-1.8-0.9L303.7,50.5z M303.7,55.3L298.3,67h10.9
		L303.7,55.3z" class="st0"></path>
	<path d="M336.9,77.3c3.2,0,6.3-1.3,8.6-3.5l1.4,1.4c-2.7,2.6-6.3,4.1-10,4.1c-8.5,0-14.5-6.8-14.5-14.2
		c0-8.5,6.8-14.5,14.2-14.5c4.2,0,7.8,1.6,10.4,4.2l-1.4,1.4c-2.2-2.2-5.2-3.6-8.9-3.6c-6.5,0-12.2,5.3-12.2,12.4
		C324.5,71.6,329.7,77.3,336.9,77.3z" class="st0"></path>
	<path d="M356.9,78.7V51.4h2v27.3H356.9z" class="st0"></path>
	<path d="M380.1,50.5L393,78.3l-1.8,0.9L386.4,69h-12.8l-4.7,10.1l-1.8-0.9L380.1,50.5z M380,55.3L374.6,67h10.9
		L380,55.3z" class="st0"></path>
	<path d="M407.2,79.5c-2.9,0-7.9-1.4-8.5-8.6l2-0.1c0.5,5.6,4.1,6.7,6.5,6.7c4.3,0,6.8-3.5,6.8-6.5c0-2.4-1.1-4-7.4-5.6
		c-3.5-0.9-6.8-2.9-6.8-7c0-5.4,4.3-7.5,7.4-7.5c4.6,0,7.5,3.4,7.7,7.5l-2,0.1c-0.1-3.1-2.3-5.5-5.6-5.5c-2.4,0-5.4,1.6-5.4,5.4
		c0,3.1,2.4,4.4,5.3,5.1c7.3,1.9,8.8,4.3,8.8,7.6C416.1,75,412.9,79.5,407.2,79.5z" class="st0"></path>
</g>
<g>
	<path d="M227.2,99.1c-12.8,0-25.5,1.2-38.1,3.2l1.1-2.3c9.2-18,16.2-37.2,21-56.8c1.9-7.7,3.5-15.4,4.5-23.3
		c0.7-5.3,1.2-16.1-5.4-18c-1.9-0.5-3.9-0.3-5.9,0.3l0,0c-12,4.1-30.9,24.8-31.4,25.3c-3.4,3.4-6.8,6.9-10.1,10.5
		c-13.8,15-27,30.6-39.9,46.3c-1,1.2-2,2.4-3,3.6l-12.7,15.4l0,0l-0.7,0.8c-2.4,2.8-10.1,12-15.1,15.4c0,0,0,0-0.1,0c0,0,0,0-0.1,0
		l0,0c-2.5,1.7-4.4,0.9-4.6,0.8c-2.3-1.1-3.7-3.9-4.7-6.7c-3.5-9.5-5.4-19.9-10.1-29c-1.7-3.3-4.1-6.9-7.9-8
		c-5-1.4-9.6,2.5-12.9,5.7C35.4,98,23,117.5,11.2,136.5c-2,3.2-4,6.5-5.9,9.7l0,0c-0.1,0.1-2.2,3.4-2.9,4.8l0,0l0,0
		c-0.1,0.1-0.1,0.3-0.1,0.5c0,0.6,0.5,1,1,1c0.4,0,0.7-0.2,0.9-0.4l0,0l0,0l0,0l7.5-10.8l0,0c0,0,28.2-40.3,39.3-49.9l0,0l0,0
		c2.8-2.7,6.5-5.7,9.9-5.4c4.9,0.3,7.4,7.5,8.9,11.7c0,0.1,3.3,9.5,3.8,11.1l0,0l0,0c1.5,5,3.8,12.8,4.6,14.3
		c0.6,1.5,1.4,2.9,2.4,4.2c1.2,1.6,2.5,2.5,3.8,2.9c0.1,0,0.2,0.1,0.3,0.1c1.2,0.3,2.2,0.4,3.3,0.2c2.5-0.3,7.6-1.5,13-7
		c12.4-12,43.6-50.7,43.6-50.7l25.1-29.3c4.9-5.3,16.7-18.1,25.9-25.4c3.1-2.6,6.3-4.8,8.8-5.3c0.4-0.1,0.8-0.1,1.1-0.1l0,0
		c1.2,0,2.2,0.6,2.8,2c0,0.1,0.1,0.3,0.2,0.5l0,0c0,0,0.3,0.8,0.3,2.1c0,3.8-1,17.1-10.7,45.9c-1.8,5.1-3.7,10.1-5.7,15.2
		c-1.7,4.4-3.5,8.7-5.5,13c-0.5,1-1,2-1.5,3l-5,9.7c-20.3,3.5-42.1,7.9-58.1,21.7c-7.9,6.8-15.6,17.7-13.4,28.7
		c2.1,10.6,12.8,16.4,23,14c5.2-1.2,10-3.8,14.4-7.1c19.1-14,36.7-45.8,39.9-51.8c16.8-4.5,40.3-8,40.6-8l0,0l0,0
		c0.3-0.1,0.6-0.1,0.8-0.2C228.4,100.6,228.4,99.1,227.2,99.1z M168.5,125.3c0,0-14.8,22.6-27.9,31.8c-8.3,5.8-14.9,2.7-15.1,2.7
		c-0.7-0.4-1.4-0.8-2-1.3c-7.7-5.7-6.3-15.4-1.1-22.2c5.5-7.1,13.8-11.6,21.8-15.1c10.4-4.5,21.2-7.6,32.2-10.2
		C174,116.1,171.3,120.9,168.5,125.3z" class="st0"></path>
</g>
</svg>
