<?xml version="1.0" encoding="utf-8"?>
<!-- Generator: Adobe Illustrator 26.0.1, SVG Export Plug-In . SVG Version: 6.00 Build 0)  -->
<svg version="1.1" id="Layer_1" xmlns="http://www.w3.org/2000/svg" xmlns:xlink="http://www.w3.org/1999/xlink" x="0px" y="0px"
	 viewBox="0 0 1868.43 1326.73" style="enable-background:new 0 0 1868.43 1326.73;" xml:space="preserve">
<style type="text/css">
	.st0{fill:url(#SVGID_1_);}
	.st1{fill:url(#SVGID_00000125567051840632909790000013248188024779240100_);}
	.st2{fill:url(#SVGID_00000118383111563522393930000003768061257148226464_);}
	.st3{fill:#37B44A;}
	.st4{fill:#3582C4;}
	.st5{fill:url(#SVGID_00000127044683894438148770000018016818575441993399_);}
	.st6{fill:url(#SVGID_00000041290910281735104450000013169918821105383300_);}
	.st7{fill:url(#SVGID_00000065757506885491625160000005841970940026961296_);}
</style>
<g>
	<g>
		<g>
			<linearGradient id="SVGID_1_" gradientUnits="userSpaceOnUse" x1="-3.784" y1="480.4173" x2="485.5071" y2="480.4173">
				<stop  offset="0" style="stop-color:#3582C4"/>
				<stop  offset="0.6466" style="stop-color:#1F73B1"/>
				<stop  offset="1" style="stop-color:#046AA8"/>
			</linearGradient>
			<path class="st0" d="M650.99,793.79H542.53c-55.21,0-108.16-21.93-147.2-60.97l-52.33-52.33L160.2,497.77
				c-9.56-9.56-9.57-25.06-0.01-34.62l182.84-182.91l0.04-0.04l0.08-0.08l52.1-52.1c39.04-39.04,91.99-60.97,147.2-60.97h39.4h0
				c21.8,0.03,32.69,26.39,17.27,41.8l-66.05,66.01l-5.51,5.5l-177.7,177.7c-9.56,9.56-9.56,25.06,0,34.62l187.77,187.81l0.16,0.16
				L650.2,793l0.55,0.55L650.99,793.79z"/>
			
				<linearGradient id="SVGID_00000013871303840240227200000008662968369063058839_" gradientUnits="userSpaceOnUse" x1="1813.8801" y1="480.4173" x2="1327.8102" y2="480.4173">
				<stop  offset="0" style="stop-color:#37B44A"/>
				<stop  offset="0.5926" style="stop-color:#239F48"/>
				<stop  offset="1" style="stop-color:#0A9246"/>
			</linearGradient>
			<path style="fill:url(#SVGID_00000013871303840240227200000008662968369063058839_);" d="M1708.23,497.73l-235.09,235.09
				c-39.04,39.04-91.99,60.97-147.2,60.97h-49.4c-21.81,0-32.74-26.37-17.31-41.8l71.35-71.35l0.16-0.16l187.81-187.81
				c9.56-9.56,9.56-25.07,0-34.63l-177.3-177.26l-71.95-71.95c-15.41-15.41-4.52-41.77,17.28-41.8l0.03,0h39.33
				c55.21,0,108.16,21.93,147.2,60.97l52.18,52.18l0.08,0.08l182.83,182.83C1717.79,472.67,1717.79,488.17,1708.23,497.73z"/>
		</g>
		<g>
			
				<linearGradient id="SVGID_00000138530817715809148940000014501774551551569560_" gradientUnits="userSpaceOnUse" x1="725.9246" y1="688.7295" x2="1079.7001" y2="334.9539">
				<stop  offset="0" style="stop-color:#3582C4"/>
				<stop  offset="1" style="stop-color:#37B44A"/>
			</linearGradient>
			<path style="fill:url(#SVGID_00000138530817715809148940000014501774551551569560_);" d="M1525.32,280.2l-296.97,0
				c-8.57,0-17.06,1.53-25.04,4.66c-17.54,6.87-48.52,23.15-81.47,60.01l-88.06,107.89l-22.56,27.65l-22.6,27.65l-54.4,66.49
				L810.05,726.43c0,0-51.79,67.08-159.06,67.36H494.95c-24.75,0-48.48-9.83-65.98-27.33l-85.82-85.82h296.94
				c8.57,0,17.06-1.53,25.04-4.66c17.54-6.87,48.52-23.15,81.47-60.01l88.06-107.89l22.56-27.65l22.6-27.65l54.4-66.49
				l124.17-151.87c0,0,51.99-67.36,159.69-67.36h155.45c24.75,0,48.48,9.83,65.98,27.33L1525.32,280.2z"/>
			<g>
				<path class="st3" d="M1525.32,680.64h-194.73l-102.24,0c-8.57,0-17.06-1.53-25.04-4.66c-17.54-6.87-48.52-23.15-81.47-60.01
					l-92.76-113.66l-4.74,5.77l-72.26,88.34l106.31,130.02c0,0,51.79,67.08,159.06,67.36c0.2,0,0.43,0,0.63,0h155.45
					c24.75,0,48.48-9.83,65.98-27.33L1525.32,680.64z"/>
				<path class="st4" d="M916.36,364.42l-72.26,88.34l-4.74,5.77L746.6,344.87c-32.95-36.87-63.93-53.14-81.47-60.01
					c-7.98-3.13-16.47-4.66-25.04-4.66l-297.02,0l0.08-0.08l85.74-85.74c17.5-17.5,41.23-27.33,65.98-27.33h155.49
					c107.7,0,159.69,67.36,159.69,67.36L916.36,364.42z"/>
			</g>
		</g>
	</g>
	<g>
		<g>
			<path class="st4" d="M255.85,1145v14.57h-41.37c-4.08,0-7.93-0.93-11.42-2.68c-5.13-2.56-9.32-6.76-11.77-11.89
				c-1.75-3.5-2.68-7.34-2.68-11.42v-55.59h14.57v56.99c0.7,5.13,4.78,9.21,9.91,9.91L255.85,1145z"/>
			<path class="st4" d="M267.5,1159.45v-81.58h14.57v81.58H267.5z"/>
			<path class="st4" d="M375.42,1077.87v14.57h-59.55c-4.08,0-7.46,3.38-7.46,7.46v7.58h52.44v14.57h-52.56v37.41h-14.45v-59.55
				c0-12.12,9.79-22.03,21.91-22.03H375.42z"/>
			<path class="st4" d="M401.53,1099.89v7.58h52.44v14.57h-52.44v15.38c0,4.08,3.38,7.46,7.46,7.46h59.55v14.57h-59.55
				c-12.12,0-21.91-9.91-21.91-22.03v-37.53c0-12.12,9.79-22.03,21.91-22.03h59.55v14.57h-59.55
				C404.91,1092.43,401.53,1095.81,401.53,1099.89z"/>
			<path class="st4" d="M487.2,1118.66c0,14.45,11.77,26.22,26.22,26.22h40.79v14.57h-40.79c-22.49,0-40.79-18.3-40.79-40.79
				c0-22.49,18.3-40.79,40.79-40.79h40.79v14.57h-40.79C498.97,1092.43,487.2,1104.21,487.2,1118.66z"/>
			<path class="st4" d="M561.21,1159.45h0.23l-0.23,0.23V1159.45z M642.79,1077.75l-31.58,40.91l-1.75,2.21v38.46h-14.57v-38.23
				l-1.98-2.45l-31.58-40.91h18.41l22.38,29.02l22.38-29.02H642.79z M642.67,1159.45h0.12v0.23L642.67,1159.45z"/>
			<path class="st4" d="M655.61,1118.66c0,14.45,11.77,26.22,26.22,26.22h40.79v14.57h-40.79c-22.49,0-40.79-18.3-40.79-40.79
				c0-22.49,18.3-40.79,40.79-40.79h40.79v14.57h-40.79C667.38,1092.43,655.61,1104.21,655.61,1118.66z"/>
			<path class="st4" d="M801.53,1145v14.57h-41.37c-4.08,0-7.93-0.93-11.42-2.68c-5.13-2.56-9.32-6.76-11.77-11.89
				c-1.75-3.5-2.68-7.34-2.68-11.42v-55.59h14.57v56.99c0.7,5.13,4.78,9.21,9.91,9.91L801.53,1145z"/>
			<path class="st4" d="M827.75,1099.89v7.58h52.44v14.57h-52.44v15.38c0,4.08,3.38,7.46,7.46,7.46h59.55v14.57h-59.55
				c-12.12,0-21.91-9.91-21.91-22.03v-37.53c0-12.12,9.79-22.03,21.91-22.03h59.55v14.57h-59.55
				C831.13,1092.43,827.75,1095.81,827.75,1099.89z"/>
			<path class="st4" d="M1025.77,1100.48v-0.47c0-4.08-3.38-7.46-7.46-7.46h-33.1c-4.08,0-7.46,3.38-7.46,7.46v0.47
				c0,4.08,3.38,7.46,7.46,7.46h29.37c7.58,0,14.33,3.26,19,8.39c0.35,0.35,0.58,0.7,0.93,1.05c3.61,4.43,5.83,10.14,5.83,16.32
				c0,14.22-11.54,25.76-25.76,25.76h-25.52c-14.22,0-25.76-11.54-25.76-25.76h14.57c0,6.18,5.01,11.19,11.19,11.19h25.52
				c6.18,0,11.3-5.01,11.3-11.19c0-6.18-5.13-11.19-11.3-11.19h-29.37c-5.94,0-11.3-2.33-15.27-6.18c-1.05-1.05-1.98-2.21-2.8-3.5
				c-2.45-3.5-3.84-7.81-3.84-12.47v-0.47c0-12.12,9.79-22.03,21.91-22.03h33.1c12.12,0,22.03,9.91,22.03,22.03v0.47
				L1025.77,1100.48z"/>
			<path class="st4" d="M1130.66,1118.66c0,22.49-18.3,40.79-40.79,40.79c-22.49,0-40.79-18.3-40.79-40.79
				c0-22.49,18.3-40.79,40.79-40.79C1112.36,1077.87,1130.66,1096.16,1130.66,1118.66z M1116.09,1118.66
				c0-14.45-11.77-26.22-26.22-26.22c-14.45,0-26.22,11.77-26.22,26.22c0,14.45,11.77,26.22,26.22,26.22
				C1104.32,1144.88,1116.09,1133.11,1116.09,1118.66z"/>
			<path class="st4" d="M1206.65,1145v14.57h-41.37c-4.08,0-7.93-0.93-11.42-2.68c-5.13-2.56-9.32-6.76-11.77-11.89
				c-1.75-3.5-2.68-7.34-2.68-11.42v-55.59h14.57v56.99c0.7,5.13,4.78,9.21,9.91,9.91L1206.65,1145z"/>
			<path class="st4" d="M1290.92,1077.87v40.79c0,22.49-18.3,40.79-40.79,40.79c-22.49,0-40.79-18.3-40.79-40.79v-40.79h14.57v40.79
				c0,14.45,11.77,26.22,26.22,26.22c14.45,0,26.22-11.77,26.22-26.22v-40.79H1290.92z"/>
			<path class="st4" d="M1384.04,1077.98v14.57h-33.45v67.01h-14.57v-67.01h-33.45v-14.57H1384.04z"/>
			<path class="st4" d="M1395.81,1159.45v-81.58h14.57v81.58H1395.81z"/>
			<path class="st4" d="M1500.7,1118.66c0,22.49-18.3,40.79-40.79,40.79c-22.49,0-40.79-18.3-40.79-40.79
				c0-22.49,18.3-40.79,40.79-40.79C1482.4,1077.87,1500.7,1096.16,1500.7,1118.66z M1486.13,1118.66
				c0-14.45-11.77-26.22-26.22-26.22c-14.45,0-26.22,11.77-26.22,26.22c0,14.45,11.77,26.22,26.22,26.22
				C1474.36,1144.88,1486.13,1133.11,1486.13,1118.66z"/>
			<path class="st4" d="M1591.03,1077.98v81.58l-14.57-11.19l-52.44-40.44v51.63h-14.57v-81.35l14.57,11.19l52.44,40.44v-51.98
				L1591.03,1077.98z"/>
			<path class="st4" d="M1665.27,1100.48v-0.47c0-4.08-3.38-7.46-7.46-7.46h-33.1c-4.08,0-7.46,3.38-7.46,7.46v0.47
				c0,4.08,3.38,7.46,7.46,7.46h29.37c7.58,0,14.33,3.26,19,8.39c0.35,0.35,0.58,0.7,0.93,1.05c3.61,4.43,5.83,10.14,5.83,16.32
				c0,14.22-11.54,25.76-25.76,25.76h-25.52c-14.22,0-25.76-11.54-25.76-25.76h14.57c0,6.18,5.01,11.19,11.19,11.19h25.52
				c6.18,0,11.3-5.01,11.3-11.19c0-6.18-5.13-11.19-11.3-11.19h-29.37c-5.94,0-11.3-2.33-15.27-6.18c-1.05-1.05-1.98-2.21-2.8-3.5
				c-2.45-3.5-3.84-7.81-3.84-12.47v-0.47c0-12.12,9.79-22.03,21.91-22.03h33.1c12.12,0,22.03,9.91,22.03,22.03v0.47
				L1665.27,1100.48z"/>
		</g>
		<g>
			<g>
				<path class="st3" d="M188.6,1028.69V899.66h23.04v129.03H188.6z"/>
				<path class="st3" d="M359.11,899.85v129.03l-23.04-17.7l-82.95-63.96v81.66h-23.04V900.22l23.04,17.7l82.95,63.96v-82.21
					L359.11,899.85z"/>
				<path class="st3" d="M506.39,899.85v23.04h-52.9v105.99h-23.04V922.89h-52.9v-23.04H506.39z"/>
				<path class="st3" d="M548.04,934.5v11.98h82.95v23.04h-82.95v24.33c0,6.45,5.35,11.8,11.8,11.8h94.19v23.04h-94.19
					c-19.17,0-34.65-15.67-34.65-34.84V934.5c0-19.17,15.48-34.84,34.65-34.84h94.19v23.04h-94.19
					C553.39,922.71,548.04,928.05,548.04,934.5z"/>
				<path class="st3" d="M685.37,964.18c0,22.86,18.62,41.47,41.47,41.47h41.47v-24.7h-41.47v-23.04h64.52v70.78h-64.52
					c-35.58,0-64.52-28.94-64.52-64.52s28.94-64.52,64.52-64.52h64.52v23.04h-64.52C703.99,922.71,685.37,941.32,685.37,964.18z"/>
				<path class="st3" d="M913.94,1005.84l11.8,23.04h-25.81l-11.8-23.04l-12.35-24.15l-0.55-1.11
					c-4.05-6.64-11.24-11.06-19.54-11.06h-23.04v59.35h-23.04V899.85h81.47c9.58,0,18.25,3.87,24.52,10.14
					c6.27,6.45,10.14,15.11,10.14,24.7c0,14.01-8.29,26.17-20.28,31.7c-3.13,1.47-6.45,2.4-9.95,2.77L913.94,1005.84z
					 M891.09,946.48c1.66,0,3.32-0.37,4.79-1.11c4.24-1.84,7.01-6.08,7.01-10.69c0-4.24-2.21-7.19-3.5-8.48
					c-1.48-1.47-4.24-3.32-8.3-3.32h-58.43v23.78L891.09,946.48z"/>
				<path class="st3" d="M944.36,1028.69V899.66h23.04v129.03H944.36z"/>
				<path class="st3" d="M1114.68,899.85v23.04h-52.9v105.99h-23.04V922.89h-52.9v-23.04H1114.68z"/>
				<path class="st3" d="M1237.44,1005.84l11.8,23.04h-25.81l-11.8-23.04l-12.35-24.15l-0.55-1.11
					c-4.05-6.64-11.24-11.06-19.54-11.06h-23.04v59.35h-23.04V899.85h81.47c9.58,0,18.25,3.87,24.52,10.14
					c6.27,6.45,10.14,15.11,10.14,24.7c0,14.01-8.29,26.17-20.28,31.7c-3.13,1.47-6.45,2.4-9.95,2.77L1237.44,1005.84z
					 M1214.59,946.48c1.66,0,3.32-0.37,4.79-1.11c4.24-1.84,7.01-6.08,7.01-10.69c0-4.24-2.21-7.19-3.5-8.48
					c-1.47-1.47-4.24-3.32-8.29-3.32h-58.43v23.78L1214.59,946.48z"/>
				<path class="st3" d="M1392.28,1028.69h-25.81l-11.8-23.04l-28.2-55.3l-28.2,55.3l-11.8,23.04h-25.81l11.8-23.04l54.01-105.99
					l54.01,105.99L1392.28,1028.69z"/>
				<path class="st3" d="M1467.67,899.85c35.58,0,64.52,28.76,64.52,64.33c0,15.85-5.71,30.41-15.3,41.66
					c-1.11,1.29-2.4,2.58-3.69,3.87c-11.61,11.8-27.65,18.99-45.34,18.99h-64.52V899.66L1467.67,899.85z M1426.2,1005.84h41.47
					c22.86,0,41.47-18.62,41.47-41.47s-18.62-41.47-41.47-41.47h-41.47V1005.84z"/>
				<path class="st3" d="M1573.85,934.5v11.98h82.95v23.04h-82.95v24.33c0,6.45,5.35,11.8,11.8,11.8h94.19v23.04h-94.19
					c-19.17,0-34.65-15.67-34.65-34.84V934.5c0-19.17,15.48-34.84,34.65-34.84h94.19v23.04h-94.19
					C1579.19,922.71,1573.85,928.05,1573.85,934.5z"/>
			</g>
			<g>
				<polygon class="st4" points="1354.45,1028.7 1300.06,1028.7 1310.87,1007.07 1343.64,1007.07 				"/>
			</g>
		</g>
	</g>
</g>
</svg>
