<?xml version="1.0" encoding="utf-8"?>
<!-- Generator: Adobe Illustrator 26.0.1, SVG Export Plug-In . SVG Version: 6.00 Build 0)  -->
<svg version="1.1" id="Layer_1" xmlns="http://www.w3.org/2000/svg" xmlns:xlink="http://www.w3.org/1999/xlink" x="0px" y="0px"
	 viewBox="0 0 2977.23 783.19" style="enable-background:new 0 0 2977.23 783.19;" xml:space="preserve">
<style type="text/css">
	.st0{fill:url(#SVGID_1_);}
	.st1{fill:url(#SVGID_00000021838731703083521350000001371465878112309407_);}
	.st2{fill:url(#SVGID_00000000940139240796910800000012675694316790744506_);}
	.st3{fill:#37B44A;}
	.st4{fill:#3582C4;}
	.st5{fill:url(#SVGID_00000044159191566933955650000000891937244178973338_);}
	.st6{fill:url(#SVGID_00000064337390698754370830000009306646666449356446_);}
	.st7{fill:url(#SVGID_00000121260950978801792520000015826708100176884633_);}
</style>
<g>
	<g>
		<g>
			<linearGradient id="SVGID_1_" gradientUnits="userSpaceOnUse" x1="22.4675" y1="391.5933" x2="373.9059" y2="391.5933">
				<stop  offset="0" style="stop-color:#3582C4"/>
				<stop  offset="0.6466" style="stop-color:#1F73B1"/>
				<stop  offset="1" style="stop-color:#046AA8"/>
			</linearGradient>
			<path class="st0" d="M492.77,616.67h-77.9c-39.66,0-77.69-15.75-105.73-43.79l-37.59-37.59L140.25,404.05
				c-6.87-6.87-6.87-18,0-24.87l131.32-131.37l0.03-0.03l0.06-0.06l37.42-37.42c28.04-28.04,66.07-43.79,105.73-43.79h28.3h0
				c15.66,0.02,23.48,18.96,12.41,30.02l-47.44,47.41l-3.96,3.95L276.49,375.53c-6.87,6.87-6.87,18,0,24.87l134.87,134.9l0.11,0.11
				l80.73,80.7l0.4,0.4L492.77,616.67z"/>
			
				<linearGradient id="SVGID_00000004505183180077265240000000969527971639050639_" gradientUnits="userSpaceOnUse" x1="1328.0234" y1="391.5933" x2="978.8986" y2="391.5933">
				<stop  offset="0" style="stop-color:#37B44A"/>
				<stop  offset="0.5926" style="stop-color:#239F48"/>
				<stop  offset="1" style="stop-color:#0A9246"/>
			</linearGradient>
			<path style="fill:url(#SVGID_00000004505183180077265240000000969527971639050639_);" d="M1252.14,404.03l-168.85,168.85
				c-28.04,28.04-66.07,43.79-105.73,43.79h-35.48c-15.67,0-23.51-18.94-12.43-30.02l51.25-51.25l0.11-0.11l134.89-134.89
				c6.87-6.87,6.87-18,0-24.87L988.56,248.21l-51.68-51.68c-11.07-11.07-3.24-30,12.41-30.02l0.02,0h28.25
				c39.66,0,77.69,15.75,105.73,43.79l37.48,37.48l0.06,0.06l131.32,131.32C1259.01,386.03,1259.01,397.16,1252.14,404.03z"/>
		</g>
		<g>
			
				<linearGradient id="SVGID_00000181809988740175153150000012561694606830107543_" gradientUnits="userSpaceOnUse" x1="546.5881" y1="541.2156" x2="800.691" y2="287.1127">
				<stop  offset="0" style="stop-color:#3582C4"/>
				<stop  offset="1" style="stop-color:#37B44A"/>
			</linearGradient>
			<path style="fill:url(#SVGID_00000181809988740175153150000012561694606830107543_);" d="M1120.76,247.78l-213.31,0
				c-6.15,0-12.25,1.1-17.98,3.35c-12.6,4.94-34.85,16.63-58.52,43.11l-63.25,77.5l-16.2,19.86l-16.23,19.86l-39.07,47.76
				l-89.19,109.08c0,0-37.2,48.18-114.24,48.38H380.69c-17.77,0-34.82-7.06-47.39-19.63l-61.64-61.64h213.28
				c6.15,0,12.25-1.1,17.98-3.35c12.6-4.94,34.85-16.63,58.52-43.11l63.25-77.5l16.2-19.86l16.23-19.86l39.07-47.76l89.19-109.08
				c0,0,37.34-48.38,114.7-48.38h111.65c17.77,0,34.82,7.06,47.39,19.63L1120.76,247.78z"/>
			<g>
				<g>
					<path class="st3" d="M1120.76,535.4H980.9h-73.44c-6.15,0-12.26-1.1-17.99-3.35c-12.6-4.94-34.85-16.63-58.52-43.11
						l-66.63-81.64l-3.41,4.14l-51.9,63.45l76.36,93.39c0,0,37.2,48.18,114.24,48.38c0.14,0,0.31,0,0.45,0h111.65
						c17.77,0,34.82-7.06,47.39-19.63L1120.76,535.4z"/>
				</g>
				<g>
					<path class="st4" d="M683.37,308.28l-51.9,63.45l-3.41,4.14l-66.63-81.64c-23.67-26.48-45.92-38.17-58.52-43.11
						c-5.73-2.25-11.83-3.35-17.98-3.35l-213.33,0l0.06-0.06l61.58-61.58c12.57-12.57,29.61-19.63,47.39-19.63h111.68
						c77.35,0,114.7,48.38,114.7,48.38L683.37,308.28z"/>
				</g>
			</g>
		</g>
	</g>
	<g>
		<g>
			<path class="st4" d="M1418.14,506.92v14.57h-41.37c-4.08,0-7.93-0.93-11.42-2.68c-5.13-2.56-9.32-6.76-11.77-11.89
				c-1.75-3.5-2.68-7.34-2.68-11.42V439.9h14.57v56.99c0.7,5.13,4.78,9.21,9.91,9.91L1418.14,506.92z"/>
			<path class="st4" d="M1429.8,521.37v-81.58h14.57v81.58H1429.8z"/>
			<path class="st4" d="M1537.71,439.79v14.57h-59.55c-4.08,0-7.46,3.38-7.46,7.46v7.58h52.44v14.57h-52.56v37.41h-14.45v-59.55
				c0-12.12,9.79-22.03,21.91-22.03H1537.71z"/>
			<path class="st4" d="M1563.82,461.81v7.58h52.44v14.57h-52.44v15.38c0,4.08,3.38,7.46,7.46,7.46h59.55v14.57h-59.55
				c-12.12,0-21.91-9.91-21.91-22.03v-37.53c0-12.12,9.79-22.03,21.91-22.03h59.55v14.57h-59.55
				C1567.2,454.36,1563.82,457.74,1563.82,461.81z"/>
			<path class="st4" d="M1649.49,480.58c0,14.45,11.77,26.22,26.22,26.22h40.79v14.57h-40.79c-22.49,0-40.79-18.3-40.79-40.79
				c0-22.49,18.3-40.79,40.79-40.79h40.79v14.57h-40.79C1661.26,454.36,1649.49,466.13,1649.49,480.58z"/>
			<path class="st4" d="M1723.5,521.37h0.23l-0.23,0.23V521.37z M1805.08,439.67l-31.58,40.91l-1.75,2.21v38.46h-14.57v-38.23
				l-1.98-2.45l-31.58-40.91h18.41l22.38,29.02l22.38-29.02H1805.08z M1804.96,521.37h0.12v0.23L1804.96,521.37z"/>
			<path class="st4" d="M1817.9,480.58c0,14.45,11.77,26.22,26.22,26.22h40.79v14.57h-40.79c-22.49,0-40.79-18.3-40.79-40.79
				c0-22.49,18.3-40.79,40.79-40.79h40.79v14.57h-40.79C1829.67,454.36,1817.9,466.13,1817.9,480.58z"/>
			<path class="st4" d="M1963.82,506.92v14.57h-41.37c-4.08,0-7.93-0.93-11.42-2.68c-5.13-2.56-9.32-6.76-11.77-11.89
				c-1.75-3.5-2.68-7.34-2.68-11.42V439.9h14.57v56.99c0.7,5.13,4.78,9.21,9.91,9.91L1963.82,506.92z"/>
			<path class="st4" d="M1990.05,461.81v7.58h52.44v14.57h-52.44v15.38c0,4.08,3.38,7.46,7.46,7.46h59.55v14.57h-59.55
				c-12.12,0-21.91-9.91-21.91-22.03v-37.53c0-12.12,9.79-22.03,21.91-22.03h59.55v14.57h-59.55
				C1993.42,454.36,1990.05,457.74,1990.05,461.81z"/>
			<path class="st4" d="M2188.06,462.4v-0.47c0-4.08-3.38-7.46-7.46-7.46h-33.1c-4.08,0-7.46,3.38-7.46,7.46v0.47
				c0,4.08,3.38,7.46,7.46,7.46h29.37c7.58,0,14.33,3.26,19,8.39c0.35,0.35,0.58,0.7,0.93,1.05c3.61,4.43,5.83,10.14,5.83,16.32
				c0,14.22-11.54,25.76-25.76,25.76h-25.52c-14.22,0-25.76-11.54-25.76-25.76h14.57c0,6.18,5.01,11.19,11.19,11.19h25.52
				c6.18,0,11.3-5.01,11.3-11.19c0-6.18-5.13-11.19-11.3-11.19h-29.37c-5.94,0-11.3-2.33-15.27-6.18c-1.05-1.05-1.98-2.21-2.8-3.5
				c-2.45-3.5-3.84-7.81-3.84-12.47v-0.47c0-12.12,9.79-22.03,21.91-22.03h33.1c12.12,0,22.03,9.91,22.03,22.03v0.47L2188.06,462.4z
				"/>
			<path class="st4" d="M2292.95,480.58c0,22.49-18.3,40.79-40.79,40.79c-22.49,0-40.79-18.3-40.79-40.79
				c0-22.49,18.3-40.79,40.79-40.79C2274.66,439.79,2292.95,458.09,2292.95,480.58z M2278.38,480.58
				c0-14.45-11.77-26.22-26.22-26.22c-14.45,0-26.22,11.77-26.22,26.22c0,14.45,11.77,26.22,26.22,26.22
				C2266.61,506.8,2278.38,495.03,2278.38,480.58z"/>
			<path class="st4" d="M2368.94,506.92v14.57h-41.37c-4.08,0-7.93-0.93-11.42-2.68c-5.13-2.56-9.32-6.76-11.77-11.89
				c-1.75-3.5-2.68-7.34-2.68-11.42V439.9h14.57v56.99c0.7,5.13,4.78,9.21,9.91,9.91L2368.94,506.92z"/>
			<path class="st4" d="M2453.21,439.79v40.79c0,22.49-18.3,40.79-40.79,40.79c-22.49,0-40.79-18.3-40.79-40.79v-40.79h14.57v40.79
				c0,14.45,11.77,26.22,26.22,26.22c14.45,0,26.22-11.77,26.22-26.22v-40.79H2453.21z"/>
			<path class="st4" d="M2546.33,439.9v14.57h-33.45v67.01h-14.57v-67.01h-33.45V439.9H2546.33z"/>
			<path class="st4" d="M2558.1,521.37v-81.58h14.57v81.58H2558.1z"/>
			<path class="st4" d="M2662.99,480.58c0,22.49-18.3,40.79-40.79,40.79c-22.49,0-40.79-18.3-40.79-40.79
				c0-22.49,18.3-40.79,40.79-40.79C2644.7,439.79,2662.99,458.09,2662.99,480.58z M2648.43,480.58c0-14.45-11.77-26.22-26.22-26.22
				c-14.45,0-26.22,11.77-26.22,26.22c0,14.45,11.77,26.22,26.22,26.22C2636.66,506.8,2648.43,495.03,2648.43,480.58z"/>
			<path class="st4" d="M2753.32,439.9v81.58l-14.57-11.19l-52.44-40.44v51.63h-14.57v-81.35l14.57,11.19l52.44,40.44v-51.98
				L2753.32,439.9z"/>
			<path class="st4" d="M2827.56,462.4v-0.47c0-4.08-3.38-7.46-7.46-7.46H2787c-4.08,0-7.46,3.38-7.46,7.46v0.47
				c0,4.08,3.38,7.46,7.46,7.46h29.37c7.58,0,14.33,3.26,19,8.39c0.35,0.35,0.58,0.7,0.93,1.05c3.61,4.43,5.83,10.14,5.83,16.32
				c0,14.22-11.54,25.76-25.76,25.76h-25.52c-14.22,0-25.76-11.54-25.76-25.76h14.57c0,6.18,5.01,11.19,11.19,11.19h25.52
				c6.18,0,11.3-5.01,11.3-11.19c0-6.18-5.13-11.19-11.3-11.19H2787c-5.94,0-11.3-2.33-15.27-6.18c-1.05-1.05-1.98-2.21-2.8-3.5
				c-2.45-3.5-3.84-7.81-3.84-12.47v-0.47c0-12.12,9.79-22.03,21.91-22.03h33.1c12.12,0,22.03,9.91,22.03,22.03v0.47L2827.56,462.4z
				"/>
		</g>
		<g>
			<g>
				<path class="st3" d="M1350.89,390.62V261.59h23.04v129.03H1350.89z"/>
				<path class="st3" d="M1521.4,261.77V390.8l-23.04-17.7l-82.95-63.96v81.66h-23.04V262.14l23.04,17.7l82.95,63.96v-82.21
					L1521.4,261.77z"/>
				<path class="st3" d="M1668.68,261.77v23.04h-52.9V390.8h-23.04V284.81h-52.9v-23.04H1668.68z"/>
				<path class="st3" d="M1710.34,296.42v11.98h82.95v23.04h-82.95v24.33c0,6.45,5.35,11.8,11.8,11.8h94.19v23.04h-94.19
					c-19.17,0-34.65-15.67-34.65-34.84v-59.35c0-19.17,15.48-34.84,34.65-34.84h94.19v23.04h-94.19
					C1715.68,284.63,1710.34,289.97,1710.34,296.42z"/>
				<path class="st3" d="M1847.66,326.1c0,22.86,18.62,41.47,41.47,41.47h41.47v-24.7h-41.47v-23.04h64.52v70.78h-64.52
					c-35.58,0-64.52-28.94-64.52-64.52s28.94-64.52,64.52-64.52h64.52v23.04h-64.52C1866.28,284.63,1847.66,303.24,1847.66,326.1z"
					/>
				<path class="st3" d="M2076.23,367.76l11.8,23.04h-25.81l-11.8-23.04l-12.35-24.15l-0.55-1.11
					c-4.05-6.64-11.24-11.06-19.54-11.06h-23.04v59.35h-23.04V261.77h81.47c9.58,0,18.25,3.87,24.52,10.14
					c6.27,6.45,10.14,15.11,10.14,24.7c0,14.01-8.29,26.17-20.28,31.7c-3.13,1.47-6.45,2.4-9.95,2.76L2076.23,367.76z
					 M2053.38,308.41c1.66,0,3.32-0.37,4.79-1.11c4.24-1.84,7.01-6.08,7.01-10.69c0-4.24-2.21-7.19-3.5-8.48
					c-1.48-1.47-4.24-3.32-8.29-3.32h-58.43v23.78L2053.38,308.41z"/>
				<path class="st3" d="M2106.65,390.62V261.59h23.04v129.03H2106.65z"/>
				<path class="st3" d="M2276.97,261.77v23.04h-52.9V390.8h-23.04V284.81h-52.9v-23.04H2276.97z"/>
				<path class="st3" d="M2399.73,367.76l11.8,23.04h-25.81l-11.8-23.04l-12.35-24.15l-0.55-1.11
					c-4.05-6.64-11.24-11.06-19.54-11.06h-23.04v59.35h-23.04V261.77h81.47c9.58,0,18.25,3.87,24.52,10.14
					c6.27,6.45,10.14,15.11,10.14,24.7c0,14.01-8.29,26.17-20.28,31.7c-3.13,1.47-6.45,2.4-9.95,2.76L2399.73,367.76z
					 M2376.88,308.41c1.66,0,3.32-0.37,4.79-1.11c4.24-1.84,7.01-6.08,7.01-10.69c0-4.24-2.21-7.19-3.5-8.48
					c-1.47-1.47-4.24-3.32-8.29-3.32h-58.43v23.78L2376.88,308.41z"/>
				<path class="st3" d="M2554.57,390.62h-25.81l-11.8-23.04l-28.2-55.3l-28.2,55.3l-11.8,23.04h-25.81l11.8-23.04l54.01-105.99
					l54.01,105.99L2554.57,390.62z"/>
				<path class="st3" d="M2629.96,261.77c35.58,0,64.52,28.76,64.52,64.33c0,15.85-5.71,30.41-15.3,41.66
					c-1.11,1.29-2.4,2.58-3.69,3.87c-11.61,11.8-27.65,18.99-45.34,18.99h-64.52V261.59L2629.96,261.77z M2588.49,367.76h41.47
					c22.86,0,41.47-18.62,41.47-41.47c0-22.86-18.62-41.47-41.47-41.47h-41.47V367.76z"/>
				<path class="st3" d="M2736.14,296.42v11.98h82.95v23.04h-82.95v24.33c0,6.45,5.35,11.8,11.8,11.8h94.19v23.04h-94.19
					c-19.17,0-34.65-15.67-34.65-34.84v-59.35c0-19.17,15.48-34.84,34.65-34.84h94.19v23.04h-94.19
					C2741.48,284.63,2736.14,289.97,2736.14,296.42z"/>
			</g>
			<g>
				<polygon class="st4" points="2516.74,390.62 2462.35,390.62 2473.17,368.99 2505.93,368.99 				"/>
			</g>
		</g>
	</g>
</g>
</svg>
